<svg xmlns="http://www.w3.org/2000/svg" width="83.939" height="111.906" viewBox="0 0 83.939 111.906"><path d="M76.939 94.414a7 7 0 0 0 6.99-6.993V7.002a7 7 0 0 0-6.99-6.993H7.007A7 7 0 0 0 .014 7.002v80.419a6.856 6.856 0 0 0 .342 2.039 3.427 3.427 0 0 0-.342 1.458v10.871a9.834 9.834 0 0 0 10 10.108h66.437c3.68 0 7.48-2.473 7.48-6.611v-3.879a3.5 3.5 0 1 0-6.99 0v3.408a1.5 1.5 0 0 1-.49.088H10.012a2.813 2.813 0 0 1-3-3.114v-7.375h69.932zM59.459 7.002v33.9l-2.78-2.772a3.491 3.491 0 0 0-4.94 0l-2.77 2.772v-33.9h10.49zm-52.452 0h34.962v42.34a3.5 3.5 0 0 0 5.967 2.472l6.27-6.269 6.27 6.269a3.487 3.487 0 0 0 2.47 1.025 3.446 3.446 0 0 0 1.34-.267 3.49 3.49 0 0 0 2.16-3.23V7.002h10.49l.01 80.419H7.007V7.002z" fill="#191919" fill-rule="evenodd"/></svg>