<svg xmlns="http://www.w3.org/2000/svg" width="130.907" height="110.469" viewBox="0 0 130.907 110.469"><path d="M128.514 15.219l-10.464-1.8 5.689-8.968a2.906 2.906 0 0 0-3.631-4.217l-12.849 5.7a26.117 26.117 0 0 0-41.5 21.153 25.468 25.468 0 0 0 .23 3.41 40.684 40.684 0 0 0-49.613 27.291c-7.46-1.025-11.287-4.515-11.447-4.665a2.908 2.908 0 0 0-4.92 2.1 55.3 55.3 0 0 0 55.235 55.234 40.641 40.641 0 0 0 37.167-57.21 26.191 26.191 0 0 0 25.675-26.158c0-.483-.048-.951-.071-1.425l11.174-4.914a2.907 2.907 0 0 0-.675-5.531zm-40.6 31.81a2.907 2.907 0 0 0-3.038 4.384 34.828 34.828 0 0 1-29.629 53.224A49.494 49.494 0 0 1 6.128 60.719a32.1 32.1 0 0 0 12.241 3.1 2.908 2.908 0 0 0 3-2.222 34.852 34.852 0 0 1 47.575-23.924 2.905 2.905 0 0 0 3.872-3.665 20.336 20.336 0 1 1 15.096 13.025zm12.733-31.574a5.814 5.814 0 1 0 5.814 5.815 5.813 5.813 0 0 0-5.816-5.811zM79.296 66.519a2.906 2.906 0 0 0-3.674 1.846 22.288 22.288 0 0 1-19.517 15.25 22.513 22.513 0 0 1-6.5-.471c-.528-.142-1.062-.25-1.581-.426-.239-.079-.574-.165-.736-.233l-.869-.312a22.178 22.178 0 0 1-10.558-8.616l10.2-7.191a.465.465 0 0 0 .173-.511.456.456 0 0 0-.57-.3l-14.956 4.616-.125.04a2.453 2.453 0 0 0-1.451 3.151l.276.744a28.292 28.292 0 0 0 15.035 13.531l.871.312c.415.153.679.216 1.028.329.653.216 1.326.364 1.99.534a28.485 28.485 0 0 0 8.21.6 28.124 28.124 0 0 0 24.551-19.078l.049-.147a2.914 2.914 0 0 0-1.846-3.668z" fill="#191919" fill-rule="evenodd"/></svg>