<svg xmlns="http://www.w3.org/2000/svg" width="109.844" height="126.156" viewBox="0 0 109.844 126.156"><path d="M108.303 38.273a3.156 3.156 0 0 0-3.137-.037L78.344 53.137l-17.9-10.338a3.155 3.155 0 0 0-3.154 5.465l17.866 10.318v59.067l-22.08-12.22V65.88a3.154 3.154 0 0 0-6.308 0v39.492l-22.076 12.265V91.113a3.154 3.154 0 0 0-6.308 0V123a3.154 3.154 0 0 0 4.688 2.756l26.8-14.888 26.838 14.851.073.04a2.978 2.978 0 0 0 .434.174c.1.036.195.089.293.116a3.108 3.108 0 0 0 1.6 0 2.727 2.727 0 0 0 .271-.108 3.492 3.492 0 0 0 .461-.185l28.388-15.771a3.154 3.154 0 0 0 1.621-2.756V40.991a3.159 3.159 0 0 0-1.548-2.718zm-4.757 67.1l-22.079 12.264v-59.02l22.077-12.266v59.021zM27.403 85.152a3.151 3.151 0 0 0 2.625-1.406c1.013-1.519 24.8-37.4 24.8-56.335a27.418 27.418 0 1 0-54.835 0c0 18.934 23.779 54.816 24.79 56.335a3.151 3.151 0 0 0 2.62 1.405zm0-78.854a21.134 21.134 0 0 1 21.112 21.113c0 13.577-14.932 38.86-21.112 48.737-6.177-9.877-21.1-35.16-21.1-48.737a21.132 21.132 0 0 1 21.1-21.114zm15.771 22.079a15.771 15.771 0 1 0-15.771 15.771 15.787 15.787 0 0 0 15.771-15.772zm-25.233 0a9.462 9.462 0 1 1 9.462 9.463 9.471 9.471 0 0 1-9.459-9.464z" fill="#191919" fill-rule="evenodd"/></svg>