<svg xmlns="http://www.w3.org/2000/svg" width="83.939" height="111.906" viewBox="0 0 83.939 111.906">
  <metadata><?xpacket begin="﻿" id="W5M0MpCehiHzreSzNTczkc9d"?>
<x:xmpmeta xmlns:x="adobe:ns:meta/" x:xmptk="Adobe XMP Core 5.6-c138 79.159824, 2016/09/14-01:09:01        ">
   <rdf:RDF xmlns:rdf="http://www.w3.org/1999/02/22-rdf-syntax-ns#">
      <rdf:Description rdf:about=""/>
   </rdf:RDF>
</x:xmpmeta>
                                                                                                    
                                                                                                    
                                                                                                    
                                                                                                    
                                                                                                    
                                                                                                    
                                                                                                    
                                                                                                    
                                                                                                    
                                                                                                    
                                                                                                    
                                                                                                    
                                                                                                    
                                                                                                    
                                                                                                    
                                                                                                    
                                                                                                    
                                                                                                    
                                                                                                    
                                                                                                    
                           
<?xpacket end="w"?></metadata>
<defs>
    <style>
      .cls-1 {
        fill: #191919;
        fill-rule: evenodd;
      }
    </style>
  </defs>
  <path class="cls-1" d="M1034.47,769.477a7,7,0,0,0,6.99-6.993V682.065a7,7,0,0,0-6.99-6.993H964.538a7,7,0,0,0-6.993,6.993v80.419a6.856,6.856,0,0,0,.342,2.039,3.427,3.427,0,0,0-.342,1.458v10.871a9.834,9.834,0,0,0,10,10.108h66.437c3.68,0,7.48-2.473,7.48-6.611V776.47a3.5,3.5,0,1,0-6.99,0v3.408a1.5,1.5,0,0,1-.49.088H967.543a2.813,2.813,0,0,1-3-3.114v-7.375h69.932Zm-17.48-87.412v33.9l-2.78-2.772a3.491,3.491,0,0,0-4.94,0l-2.77,2.772v-33.9h10.49Zm-52.452,0H999.5v42.34a3.5,3.5,0,0,0,5.967,2.472l6.27-6.269,6.27,6.269a3.487,3.487,0,0,0,2.47,1.025,3.446,3.446,0,0,0,1.34-.267,3.49,3.49,0,0,0,2.16-3.23v-42.34h10.49l0.01,80.419H964.538V682.065Z" transform="translate(-957.531 -675.063)"/>
</svg>
