<svg xmlns="http://www.w3.org/2000/svg" width="130.907" height="110.469" viewBox="0 0 130.907 110.469">
  <metadata><?xpacket begin="﻿" id="W5M0MpCehiHzreSzNTczkc9d"?>
<x:xmpmeta xmlns:x="adobe:ns:meta/" x:xmptk="Adobe XMP Core 5.6-c138 79.159824, 2016/09/14-01:09:01        ">
   <rdf:RDF xmlns:rdf="http://www.w3.org/1999/02/22-rdf-syntax-ns#">
      <rdf:Description rdf:about=""/>
   </rdf:RDF>
</x:xmpmeta>
                                                                                                    
                                                                                                    
                                                                                                    
                                                                                                    
                                                                                                    
                                                                                                    
                                                                                                    
                                                                                                    
                                                                                                    
                                                                                                    
                                                                                                    
                                                                                                    
                                                                                                    
                                                                                                    
                                                                                                    
                                                                                                    
                                                                                                    
                                                                                                    
                                                                                                    
                                                                                                    
                           
<?xpacket end="w"?></metadata>
<defs>
    <style>
      .cls-1 {
        fill: #191919;
        fill-rule: evenodd;
      }
    </style>
  </defs>
  <path class="cls-1" d="M681.545,691l-10.464-1.8,5.689-8.968a2.906,2.906,0,0,0-3.631-4.217l-12.849,5.7a26.117,26.117,0,0,0-41.5,21.153,25.468,25.468,0,0,0,.23,3.41,40.684,40.684,0,0,0-49.613,27.291c-7.46-1.025-11.287-4.515-11.447-4.665a2.908,2.908,0,0,0-4.92,2.1,55.3,55.3,0,0,0,55.235,55.234,40.641,40.641,0,0,0,37.167-57.21,26.191,26.191,0,0,0,25.675-26.158c0-.483-0.048-0.951-0.071-1.425l11.174-4.914A2.907,2.907,0,0,0,681.545,691Zm-40.6,31.81a2.907,2.907,0,0,0-3.038,4.384,34.828,34.828,0,0,1-29.629,53.224A49.494,49.494,0,0,1,559.159,736.5,32.1,32.1,0,0,0,571.4,739.6a2.908,2.908,0,0,0,3-2.222,34.852,34.852,0,0,1,47.575-23.924,2.905,2.905,0,0,0,3.872-3.665A20.336,20.336,0,1,1,640.943,722.814Zm12.733-31.574a5.814,5.814,0,1,0,5.814,5.815A5.813,5.813,0,0,0,653.676,691.24ZM632.327,742.3a2.906,2.906,0,0,0-3.674,1.846,22.288,22.288,0,0,1-19.517,15.25,22.513,22.513,0,0,1-6.5-.471c-0.528-.142-1.062-0.25-1.581-0.426-0.239-.079-0.574-0.165-0.736-0.233l-0.869-.312a22.178,22.178,0,0,1-10.558-8.616l10.2-7.191a0.465,0.465,0,0,0,.173-0.511,0.456,0.456,0,0,0-.57-0.3l-14.956,4.616-0.125.04a2.453,2.453,0,0,0-1.451,3.151l0.276,0.744v0a28.292,28.292,0,0,0,15.035,13.531l0.871,0.312c0.415,0.153.679,0.216,1.028,0.329,0.653,0.216,1.326.364,1.99,0.534a28.485,28.485,0,0,0,8.21.6,28.124,28.124,0,0,0,24.551-19.078l0.049-.147A2.914,2.914,0,0,0,632.327,742.3Z" transform="translate(-553.031 -675.781)"/>
</svg>
