<svg xmlns="http://www.w3.org/2000/svg" width="109.844" height="126.156" viewBox="0 0 109.844 126.156">
  <metadata><?xpacket begin="﻿" id="W5M0MpCehiHzreSzNTczkc9d"?>
<x:xmpmeta xmlns:x="adobe:ns:meta/" x:xmptk="Adobe XMP Core 5.6-c138 79.159824, 2016/09/14-01:09:01        ">
   <rdf:RDF xmlns:rdf="http://www.w3.org/1999/02/22-rdf-syntax-ns#">
      <rdf:Description rdf:about=""/>
   </rdf:RDF>
</x:xmpmeta>
                                                                                                    
                                                                                                    
                                                                                                    
                                                                                                    
                                                                                                    
                                                                                                    
                                                                                                    
                                                                                                    
                                                                                                    
                                                                                                    
                                                                                                    
                                                                                                    
                                                                                                    
                                                                                                    
                                                                                                    
                                                                                                    
                                                                                                    
                                                                                                    
                                                                                                    
                                                                                                    
                           
<?xpacket end="w"?></metadata>
<defs>
    <style>
      .cls-1 {
        fill: #191919;
        fill-rule: evenodd;
      }
    </style>
  </defs>
  <path class="cls-1" d="M249.459,698.836a3.156,3.156,0,0,0-3.137-.037L219.5,713.7,201.6,703.362a3.155,3.155,0,0,0-3.154,5.465l17.866,10.318v59.067l-22.08-12.22V726.443a3.154,3.154,0,0,0-6.308,0v39.492L165.848,778.2V751.676a3.154,3.154,0,0,0-6.308,0v31.887a3.154,3.154,0,0,0,4.688,2.756l26.8-14.888,26.838,14.851h0l0.073,0.04a2.978,2.978,0,0,0,.434.174c0.1,0.036.195,0.089,0.293,0.116a3.108,3.108,0,0,0,1.6,0,2.727,2.727,0,0,0,.271-0.108,3.492,3.492,0,0,0,.461-0.185l28.388-15.771a3.154,3.154,0,0,0,1.621-2.756V701.554A3.159,3.159,0,0,0,249.459,698.836Zm-4.757,67.1L222.623,778.2v-59.02L244.7,706.914v59.021Zm-76.143-20.221a3.151,3.151,0,0,0,2.625-1.406c1.013-1.519,24.8-37.4,24.8-56.335a27.418,27.418,0,1,0-54.835,0c0,18.934,23.779,54.816,24.79,56.335A3.151,3.151,0,0,0,168.559,745.714Zm0-78.854a21.134,21.134,0,0,1,21.112,21.113c0,13.577-14.932,38.86-21.112,48.737-6.177-9.877-21.1-35.16-21.1-48.737A21.132,21.132,0,0,1,168.559,666.86Zm15.771,22.079a15.771,15.771,0,1,0-15.771,15.771A15.787,15.787,0,0,0,184.33,688.939Zm-25.233,0a9.462,9.462,0,1,1,9.462,9.463A9.471,9.471,0,0,1,159.1,688.939Z" transform="translate(-141.156 -660.563)"/>
</svg>
